PathFileType	4	(X/Y/Z)	..\data\2014029\dynamic\2014029_C4_05.trc
DataRate	CameraRate	NumFrames	NumMarkers	Units	OrigDataRate	OrigDataStartFrame	OrigNumFrames
100.000000	100.000000	4	52	mm	100.000000	48	194
Frame#	Time	L_IAS			L_IPS			R_IPS			R_IAS			L_FTC			L_FLE			L_FME			L_FAX			L_TTC			L_FAL			L_TAM			L_FCC			L_FM1			L_FM2			L_FM5			R_FTC			R_FLE			R_FME			R_FAX			R_TTC			R_FAL			R_TAM			R_FCC			R_FM1			R_FM2			R_FM5			CV7			TV10			SXS			SJN			L_SIA			L_SRS			L_SAA			L_SAE			L_HLE			L_HME			L_UOA			L_RSP			L_UHE			L_HM2			L_HM5			R_SIA			R_SRS			R_SAA			R_SAE			R_HLE			R_HME			R_UOA			R_RSP			R_UHE			R_HM2			R_HM5			
		X1	Y1	Z1	X2	Y2	Z2	X3	Y3	Z3	X4	Y4	Z4	X5	Y5	Z5	X6	Y6	Z6	X7	Y7	Z7	X8	Y8	Z8	X9	Y9	Z9	X10	Y10	Z10	X11	Y11	Z11	X12	Y12	Z12	X13	Y13	Z13	X14	Y14	Z14	X15	Y15	Z15	X16	Y16	Z16	X17	Y17	Z17	X18	Y18	Z18	X19	Y19	Z19	X20	Y20	Z20	X21	Y21	Z21	X22	Y22	Z22	X23	Y23	Z23	X24	Y24	Z24	X25	Y25	Z25	X26	Y26	Z26	X27	Y27	Z27	X28	Y28	Z28	X29	Y29	Z29	X30	Y30	Z30	X31	Y31	Z31	X32	Y32	Z32	X33	Y33	Z33	X34	Y34	Z34	X35	Y35	Z35	X36	Y36	Z36	X37	Y37	Z37	X38	Y38	Z38	X39	Y39	Z39	X40	Y40	Z40	X41	Y41	Z41	X42	Y42	Z42	X43	Y43	Z43	X44	Y44	Z44	X45	Y45	Z45	X46	Y46	Z46	X47	Y47	Z47	X48	Y48	Z48	X49	Y49	Z49	X50	Y50	Z50	X51	Y51	Z51	X52	Y52	Z52	

49	0.48	340.0743103027344	1053.5185546875	-387.1438903808595	132.086669921875	1052.484497070313	-317.0012512207032	127.0958328247071	1050.624267578125	-215.9264221191407	327.8970336914063	1065.444458007813	-138.0911102294922	255.5283660888672	959.1715087890627	-454.248016357422	206.7372589111329	513.2023315429689	-409.2435913085939	197.3963928222657	493.6008911132814	-283.3081359863282	183.1353454589844	448.6331787109376	-415.4284057617189	243.8796081542969	437.4991760253907	-347.6326904296876	124.8850402832032	80.67923736572267	-370.8770751953126	153.6259307861328	92.06523895263673	-271.8463439941407	73.26810455322267	21.78417205810547	-328.4885559082032	296.4311218261719	18.57335662841797	-290.3406066894532	290.2371520996094	36.15335845947266	-346.3295593261719	233.6022033691407	14.30186080932618	-403.3965454101564	237.3721466064454	954.6678466796877	-75.19458770751955	436.9489746093751	546.2045288085939	-87.27870178222658	451.2436523437501	520.1352539062501	-213.653549194336	412.193572998047	481.8063964843751	-84.46670532226564	492.8895568847657	472.5701293945314	-135.7882995605469	345.7399291992188	116.7187728881836	-126.5626678466797	389.7450256347657	122.1658325195313	-220.6739654541016	296.5915527343751	60.97293853759767	-181.9605712890625	508.0068969726564	39.84647750854493	-187.0247955322266	493.2534179687501	54.9049758911133	-134.2809448242188	460.4768676757814	40.94927978515626	-90.52011108398439	228.6281280517579	1589.265502929688	-297.3976440429688	128.8346862792969	1329.302490234375	-284.1299133300782	381.0031127929688	1290.067260742188	-271.3252563476563	352.6889343261719	1485.72021484375	-282.0992736816407	113.829833984375	1365.241821289063	-392.5632324218751	166.4878082275391	1513.288330078125	-400.9868469238282	218.6102752685547	1503.456298828125	-507.712371826172	282.5930175781251	1502.838989257813	-508.8156127929689	316.7516174316407	1152.9765625	-600.9893798828126	284.5540466308594	1134.62451171875	-510.6389465332032	279.5412292480469	1121.69921875	-558.7781982421876	521.1868896484376	945.584899902344	-560.9577026367189	453.277801513672	922.8352050781252	-614.2100830078126	580.5688476562501	887.9478149414065	-557.0339965820314	497.4282531738282	846.4299926757815	-622.5538940429689	102.0615844726563	1373.7001953125	-196.763656616211	152.70361328125	1518.127685546875	-197.4614868164063	192.9499816894532	1523.759155273438	-86.40004730224611	244.7747802734376	1526.111450195313	-69.25753784179689	166.8888397216797	1180.875	3.790632247924806	163.7873687744141	1162.069458007813	-88.55249786376955	141.4468688964844	1159.612548828125	-32.04446411132813	301.3426513671876	920.6708984375002	11.41564083099365	214.1378784179688	921.084655761719	39.33147048950196	335.3428344726563	834.9991455078127	21.42119979858399	219.063461303711	831.3670043945315	46.99476623535157	
50	0.49	349.7678527832032	1052.2685546875	-387.446746826172	141.9159088134766	1051.340576171875	-316.8907165527344	137.11962890625	1049.400390625	-215.8572540283204	337.9753723144532	1064.26123046875	-138.3047027587891	264.5359497070313	958.118103027344	-454.4906311035157	211.6436767578126	512.7750244140626	-409.102996826172	202.3409423828126	493.3269958496095	-283.1820068359376	187.3267364501953	448.4504699707032	-415.2158813476564	248.0397949218751	436.5973510742189	-347.5654907226563	125.3036880493164	81.06662750244142	-370.4505920410157	154.3109741210938	92.15670776367189	-271.4491577148438	73.32205200195314	22.28125381469727	-327.9514465332032	296.6276245117188	18.45714569091797	-290.2730102539063	290.3446655273438	36.07122039794923	-346.2564086914063	233.5597686767579	14.44968318939209	-403.1728515625001	247.0048828125001	953.3079223632815	-75.44814300537111	445.4544067382814	544.0764770507814	-87.21123504638673	459.9685363769532	517.9389038085939	-213.6532897949219	423.3511962890626	478.5584716796876	-84.52840423583986	504.3522338867189	472.6962890625001	-135.3867492675782	379.5291748046876	110.0333786010742	-125.782096862793	423.6190185546876	117.6391677856446	-219.6529235839844	333.9711914062501	51.58629989624025	-181.4775085449219	546.5797729492189	41.62292861938477	-185.4931182861328	530.7430419921876	55.57790374755861	-132.6652526855469	498.2243041992189	39.85579299926759	-89.05905914306642	238.7456207275391	1588.018676757813	-296.9643554687501	138.7430419921875	1328.14599609375	-284.0836486816407	390.9036254882814	1288.702758789063	-271.3322448730469	362.6985473632813	1484.3759765625	-281.6215820312501	124.1893920898438	1364.3291015625	-392.903778076172	176.7839050292969	1512.371826171875	-400.9316711425782	229.8924407958985	1502.281860351563	-507.2081604003907	293.2943420410157	1502.194213867188	-508.2839965820314	330.7977905273438	1153.134033203125	-601.5982666015626	298.0578613281251	1134.055053710938	-511.596893310547	293.6897583007813	1121.036376953125	-559.8506469726564	538.7085571289064	949.540466308594	-559.8469848632814	471.6712951660157	925.3762207031252	-613.5854492187501	599.1923217773439	893.1329345703127	-555.4388427734376	517.4161376953126	849.8677978515627	-621.4894409179689	111.8589935302735	1372.332153320313	-197.0441284179688	162.5763549804688	1516.741821289063	-197.3424987792969	202.5207824707032	1522.081665039063	-86.2669143676758	254.3379211425782	1524.404541015625	-68.95202636718751	175.6221313476563	1179.2529296875	3.318238496780396	173.0279846191407	1160.489501953125	-89.07625579833986	150.3877410888672	1158.000732421875	-32.68881988525391	310.1584777832032	919.1043090820315	11.65723133087158	222.5974578857422	919.3547363281252	38.80406570434571	344.2393188476563	833.5009765625002	21.81664848327637	227.4813537597657	829.589050292969	46.34693145751954	
51	0.5	359.5394897460938	1050.98486328125	-387.7066345214845	151.8377838134766	1050.078369140625	-316.6816406250001	147.2510375976563	1048.037719726563	-215.6914215087891	348.1559448242188	1062.944580078125	-138.4473724365235	273.6492919921876	957.029968261719	-454.6766662597657	216.6141967773438	512.3520507812501	-408.9345092773439	207.3735046386719	493.0513305664064	-283.0246582031251	191.5753326416016	448.2897338867189	-414.9742736816407	252.2730255126954	435.6873168945314	-347.4946594238282	125.7341461181641	81.52206420898439	-369.9733276367188	155.0486907958985	92.31631469726564	-271.0152893066407	73.40795135498048	22.84921836853028	-327.3192138671876	296.8027343750001	18.31917953491211	-290.1988830566407	290.4171752929688	35.97652435302735	-346.1746215820313	233.4923553466797	14.61917877197266	-402.9051513671876	256.6990051269532	951.7574462890627	-75.64897918701173	453.404266357422	541.5607910156251	-87.09205627441408	468.1573791503907	515.4229125976564	-213.6280670166016	434.0350952148439	475.1076965332032	-84.51596832275392	515.1900634765626	472.5786743164064	-134.9712524414063	412.8636474609376	104.4451675415039	-124.8660659790039	456.7551879882814	114.2169647216797	-218.529525756836	370.8313293457032	43.64799118041993	-180.8203735351563	583.9892578125001	44.30018615722657	-184.402084350586	567.3756713867189	57.02424621582033	-131.4178771972657	535.2639160156251	39.5108985900879	-87.93028259277345	248.8602142333985	1586.675415039063	-296.4437255859376	148.6849517822266	1326.883666992188	-283.9219360351563	400.8510742187501	1287.257080078125	-271.2742004394532	372.7339477539063	1482.939697265625	-281.0798950195313	134.5520477294922	1363.301147460938	-393.1173400878907	187.0806732177735	1511.346069335938	-400.7689514160157	241.3076934814454	1501.024780273438	-506.647430419922	303.9979553222657	1501.441650390625	-507.6661071777345	344.7015686035157	1153.210693359375	-602.0809326171876	311.3756408691407	1133.412231445313	-512.4547119140626	307.6706237792969	1120.322631835938	-560.7988281250001	555.7995605468751	953.2981567382815	-558.5839843750001	489.6731567382814	927.8303833007815	-612.8568725585939	617.2894287109376	898.075378417969	-553.6942749023439	536.9331665039064	853.2342529296877	-620.3472290039064	121.7083129882813	1370.865112304688	-197.1869049072266	172.4936828613282	1515.259643554688	-197.109115600586	212.1658477783204	1520.315063476563	-86.03227996826173	263.9733886718751	1522.614379882813	-68.56138610839845	184.4923400878907	1177.527099609375	2.939026594161988	182.3583221435547	1158.821533203125	-89.50666809082033	159.431625366211	1156.300659179688	-33.22787475585938	319.0374755859376	917.385437011719	11.81698131561279	231.2141418457032	917.5530395507815	38.38104248046876	353.0968017578126	831.791687011719	22.00777435302735	236.0353240966797	827.7503051757815	45.84046936035157	
52	0.51	369.3800354003907	1049.66943359375	-387.9188842773439	161.8516082763672	1048.704223632813	-316.3733215332032	157.4849700927735	1046.545043945313	-215.4282226562501	358.4364318847657	1061.498168945313	-138.5210876464844	282.8605957031251	955.911804199219	-454.8049926757814	221.6786651611329	511.9357910156251	-408.7370605468751	212.5476684570313	492.7733459472657	-282.8394775390626	195.9126434326172	448.1544189453126	-414.7030334472657	256.6060791015626	434.7715759277345	-347.4200439453126	126.1863174438477	82.05162811279298	-369.4479980468751	155.8458862304688	92.55613708496095	-270.5487365722657	73.53035736083986	23.50712203979493	-326.5958557128907	296.9548950195313	18.16336059570313	-290.1210632324219	290.4556274414063	35.8709945678711	-346.0874938964844	233.3988800048829	14.81141090393067	-402.5918273925782	266.4766235351563	950.029235839844	-75.79753875732423	460.9321289062501	538.7346801757814	-86.95263671875001	475.945770263672	512.6614990234376	-213.6043548583985	444.3331604003907	471.531951904297	-84.45301055908205	525.5025024414064	472.2599182128907	-134.5785675048828	445.4225158691407	99.96888732910159	-123.8312301635742	488.8414306640626	111.8751068115235	-217.3353881835938	406.7788085937501	37.17100143432618	-180.0001831054688	619.9131469726564	47.80436325073243	-183.8036804199219	602.8443603515626	59.18344116210939	-130.5921630859375	571.3010253906251	39.87432479858399	-87.1933059692383	258.9683532714844	1585.24462890625	-295.8361206054688	158.6638488769532	1325.523559570313	-283.6498413085938	410.8465881347657	1285.737915039063	-271.1445617675782	382.7960205078126	1481.421020507813	-280.4721984863282	144.9114227294922	1362.161865234375	-393.2011108398439	197.3777770996094	1510.215576171875	-400.4958801269532	252.8020019531251	1499.7236328125	-506.051483154297	314.6934204101563	1500.58642578125	-506.9653625488282	358.4574279785157	1153.197265625	-602.4336547851564	324.5133361816407	1132.68896484375	-513.2100830078126	321.4757385253907	1119.552978515625	-561.6162109375001	572.4560546875001	956.8334960937502	-557.1770629882814	507.2715454101564	930.1731567382815	-612.0283203125001	634.8617553710939	902.7502441406252	-551.8104858398439	555.9671630859376	856.4997558593752	-619.1349487304689	131.608627319336	1369.3037109375	-197.1952362060547	182.45654296875	1513.68505859375	-196.7618408203126	221.8846893310547	1518.466796875	-85.69195556640626	273.6838684082032	1520.743896484375	-68.0814895629883	193.4962005615235	1175.70068359375	2.655551195144654	191.7761535644532	1157.069213867188	-89.83960723876955	168.5770263671875	1154.516479492188	-33.6587142944336	327.9686889648438	915.5109863281252	11.90751075744629	239.9767150878907	915.675720214844	38.05355834960938	361.9107666015626	829.8757934570315	22.02175331115723	244.7197418212891	825.8502197265627	45.46433639526368	
